<svg xmlns="http://www.w3.org/2000/svg" width="50" height="50" viewBox="0 0 50 50">
  <g id="alert-white" transform="translate(17656 14822)">
    <circle id="Ellipse_918" data-name="Ellipse 918" cx="25" cy="25" r="25" transform="translate(-17656 -14822)" fill="#fff"/>
    <g id="Group_9619" data-name="Group 9619" transform="translate(-17642.99 -14810.488)" opacity="0">
      <g id="Group_9621" data-name="Group 9621">
        <path id="Path_26461" data-name="Path 26461" d="M8.75,12a.25.25,0,0,1,.25.25" fill="none" stroke="#54b34a" stroke-linecap="round" stroke-linejoin="round" stroke-width="1.5"/>
        <path id="Path_26462" data-name="Path 26462" d="M8.5,12.25A.25.25,0,0,1,8.75,12" fill="none" stroke="#54b34a" stroke-linecap="round" stroke-linejoin="round" stroke-width="1.5"/>
        <path id="Path_26463" data-name="Path 26463" d="M8.75,12.5a.25.25,0,0,1-.25-.25" fill="none" stroke="#54b34a" stroke-linecap="round" stroke-linejoin="round" stroke-width="1.5"/>
        <path id="Path_26464" data-name="Path 26464" d="M9,12.25a.25.25,0,0,1-.25.25" fill="none" stroke="#54b34a" stroke-linecap="round" stroke-linejoin="round" stroke-width="1.5"/>
        <path id="Path_26465" data-name="Path 26465" d="M15.25,12a.25.25,0,0,1,.25.25" fill="none" stroke="#54b34a" stroke-linecap="round" stroke-linejoin="round" stroke-width="1.5"/>
        <path id="Path_26466" data-name="Path 26466" d="M15,12.25a.25.25,0,0,1,.25-.25" fill="none" stroke="#54b34a" stroke-linecap="round" stroke-linejoin="round" stroke-width="1.5"/>
        <path id="Path_26467" data-name="Path 26467" d="M15.25,12.5a.25.25,0,0,1-.25-.25" fill="none" stroke="#54b34a" stroke-linecap="round" stroke-linejoin="round" stroke-width="1.5"/>
        <path id="Path_26468" data-name="Path 26468" d="M15.5,12.25a.25.25,0,0,1-.25.25" fill="none" stroke="#54b34a" stroke-linecap="round" stroke-linejoin="round" stroke-width="1.5"/>
        <path id="Path_26469" data-name="Path 26469" d="M14.1.5A4,4,0,1,1,8.022,4.323" fill="none" stroke="#54b34a" stroke-linecap="round" stroke-linejoin="round" stroke-width="1.5"/>
        <path id="Path_26470" data-name="Path 26470" d="M9,16.754a3.45,3.45,0,0,0,6,0" fill="none" stroke="#54b34a" stroke-linecap="round" stroke-linejoin="round" stroke-width="1.5"/>
        <path id="Path_26471" data-name="Path 26471" d="M22,12.5h-.05a10,10,0,0,0-19.9,0H2a1.5,1.5,0,0,0,0,3,1.665,1.665,0,0,0,.2-.013,10,10,0,0,0,19.6,0,1.665,1.665,0,0,0,.2.013,1.5,1.5,0,0,0,0-3Z" fill="none" stroke="#54b34a" stroke-linecap="round" stroke-linejoin="round" stroke-width="1.5"/>
      </g>
    </g>
    <g id="Group_9983" data-name="Group 9983" transform="translate(-17642.16 -14810.241)">
      <g id="Group_10175" data-name="Group 10175">
        <path id="Path_26506" data-name="Path 26506" d="M21.713,21.08a.569.569,0,0,1-.553.894h-20a.569.569,0,0,1-.553-.894L10.713.869c.246-.492.648-.492.894,0Z" fill="none" stroke="#dd3235" stroke-linecap="round" stroke-linejoin="round" stroke-width="1.5"/>
        <line id="Line_1226" data-name="Line 1226" y1="7" transform="translate(11.16 8.48)" fill="none" stroke="#dd3235" stroke-linecap="round" stroke-linejoin="round" stroke-width="1.5"/>
        <path id="Path_26507" data-name="Path 26507" d="M11.151,17.48a.244.244,0,0,0-.174.077.249.249,0,0,0-.067.178.254.254,0,0,0,.254.245h.005a.244.244,0,0,0,.174-.077.249.249,0,0,0,.067-.178.255.255,0,0,0-.25-.245h-.005" fill="none" stroke="#dd3235" stroke-linecap="round" stroke-linejoin="round" stroke-width="1.5"/>
      </g>
    </g>
  </g>
</svg>
