<svg xmlns="http://www.w3.org/2000/svg" xmlns:xlink="http://www.w3.org/1999/xlink" width="78" height="81" viewBox="0 0 78 81">
  <defs>
    <clipPath id="clip-path">
      <rect id="Rectangle_3533" data-name="Rectangle 3533" width="78" height="81" transform="translate(-14892 -13064)" fill="#fff"/>
    </clipPath>
  </defs>
  <g id="Mask_Group_28" data-name="Mask Group 28" transform="translate(14892 13064)" clip-path="url(#clip-path)">
    <path id="Path_26529" data-name="Path 26529" d="M45.158,23.471A22.8,22.8,0,0,0,31.233,2.585a22.074,22.074,0,0,0-24.6,4.641,23.067,23.067,0,0,0-5.106,24.6A22.324,22.324,0,0,0,22.415,45.75H45.158Zm6.5,0A22.8,22.8,0,0,1,65.58,2.585a22.074,22.074,0,0,1,24.6,4.641,23.067,23.067,0,0,1,5.106,24.6A22.324,22.324,0,0,1,74.4,45.75H51.655Zm0,51.055A22.8,22.8,0,0,0,65.58,95.412a22.074,22.074,0,0,0,24.6-4.641,23.067,23.067,0,0,0,5.106-24.6A22.324,22.324,0,0,0,74.4,52.247H51.655ZM22.415,90.771A16.144,16.144,0,0,0,38.66,74.526V58.281H22.415a16.245,16.245,0,0,0,0,32.49ZM45.158,74.526A22.8,22.8,0,0,1,31.233,95.412a22.074,22.074,0,0,1-24.6-4.641,23.067,23.067,0,0,1-5.106-24.6A22.324,22.324,0,0,1,22.415,52.247H45.158Z" transform="translate(-14891.851 -13061.415)" fill="#280" opacity="0.1"/>
  </g>
</svg>
