<svg xmlns="http://www.w3.org/2000/svg" width="24" height="24" viewBox="0 0 24 24">
  <g id="dashboard-grey" transform="translate(-18 -78)">
    <g id="Group_8550" data-name="Group 8550">
      <g id="dashboard_black_24dp" transform="translate(18 78)">
        <path id="Path_26302" data-name="Path 26302" d="M0,0H24V24H0Z" fill="none"/>
        <path id="Path_26303" data-name="Path 26303" d="M4,13h6a1,1,0,0,0,1-1V4a1,1,0,0,0-1-1H4A1,1,0,0,0,3,4v8A1,1,0,0,0,4,13Zm0,8h6a1,1,0,0,0,1-1V16a1,1,0,0,0-1-1H4a1,1,0,0,0-1,1v4A1,1,0,0,0,4,21Zm10,0h6a1,1,0,0,0,1-1V12a1,1,0,0,0-1-1H14a1,1,0,0,0-1,1v8A1,1,0,0,0,14,21ZM13,4V8a1,1,0,0,0,1,1h6a1,1,0,0,0,1-1V4a1,1,0,0,0-1-1H14A1,1,0,0,0,13,4Z" fill="#afafaf"/>
      </g>
    </g>
  </g>
</svg>
