<svg xmlns="http://www.w3.org/2000/svg" width="16" height="16" viewBox="0 0 16 16">
  <path id="icons8-microsoft-excel" d="M11,3a1.333,1.333,0,0,0-.267.029h0L4.086,4.357h0A1.333,1.333,0,0,0,3,5.667V16.333a1.333,1.333,0,0,0,1.086,1.31l6.646,1.329a1.333,1.333,0,0,0,1.6-1.306V4.333A1.333,1.333,0,0,0,11,3Zm2.667,1.333v2H15V7.667H13.667V9H15v1.333H13.667v1.333H15V13H13.667v1.333H15v1.333H13.667v2h4A1.333,1.333,0,0,0,19,16.333V5.667a1.333,1.333,0,0,0-1.333-1.333Zm2.667,2H17a.667.667,0,0,1,0,1.333h-.667ZM5.124,7.667h1.6L7.555,9.66a3.914,3.914,0,0,1,.173.565H7.75a5.943,5.943,0,0,1,.18-.581l.927-1.978h1.458l-1.742,3.3,1.794,3.362H8.811l-1-2.172a1.869,1.869,0,0,1-.12-.445H7.674c-.023.1-.067.258-.135.464L6.53,14.333H4.966L6.822,11ZM16.333,9H17a.667.667,0,0,1,0,1.333h-.667Zm0,2.667H17A.667.667,0,0,1,17,13h-.667Zm0,2.667H17a.667.667,0,0,1,0,1.333h-.667Z" transform="translate(-3 -3)" fill="#666"/>
</svg>