<svg xmlns="http://www.w3.org/2000/svg" width="24" height="24" viewBox="0 0 24 24">
  <g id="investigation-grey" transform="translate(-18 -78)">
    <g id="find_in_page_black_24dp" transform="translate(18 78)">
      <path id="Path_26310" data-name="Path 26310" d="M0,0H24V24H0Z" fill="none"/>
      <path id="Path_26311" data-name="Path 26311" d="M20,19.59V8.83a1.966,1.966,0,0,0-.59-1.41L14.58,2.59A1.966,1.966,0,0,0,13.17,2H6A2,2,0,0,0,4.01,4L4,20a2,2,0,0,0,1.99,2H18a1.982,1.982,0,0,0,1.19-.4l-4.43-4.43a4.979,4.979,0,0,1-3,.82,5,5,0,1,1,1.11-9.92,5,5,0,0,1,3.3,7.68ZM9,13a3,3,0,1,0,3-3A3,3,0,0,0,9,13Z" fill="#afafaf"/>
    </g>
  </g>
</svg>
