<svg xmlns="http://www.w3.org/2000/svg" width="24" height="24" viewBox="0 0 24 24">
  <g id="print-d-grey" transform="translate(17351 14809)">
    <rect id="Rectangle_2318" data-name="Rectangle 2318" width="24" height="24" transform="translate(-17351 -14809)" fill="#666" opacity="0"/>
    <g id="print-24px" transform="translate(-17346.5 -14803.5)">
      <path id="Path_25993" data-name="Path 25993" d="M14.75,6.75H4.25A2.247,2.247,0,0,0,2,9v4.5H5v3h9v-3h3V9A2.247,2.247,0,0,0,14.75,6.75ZM12.5,15h-6V11.25h6Zm2.25-5.25A.75.75,0,1,1,15.5,9,.752.752,0,0,1,14.75,9.75ZM14,3H5V6h9Z" transform="translate(-2 -3)" fill="#666"/>
    </g>
  </g>
</svg>
